<svg width="430" height="430" viewBox="0 0 430 430" fill="none" xmlns="http://www.w3.org/2000/svg">
<path d="M55 350C55 286.487 106.487 235 170 235H260C323.513 235 375 286.487 375 350V375H55V350Z" fill="#4BB3FD"/>
<g style="mix-blend-mode:multiply" opacity="0.5">
<path d="M170 235C106.487 235 55 286.487 55 350V375H110V350C110 286.487 161.487 235 225 235H170Z" fill="#4BB3FD"/>
</g>
<path d="M272.496 76.7327C283.423 89.7808 290 106.648 290 125C290 166.478 256.372 200 215 200C173.628 200 140 166.372 140 125C140 83.628 173.628 50 215 50C238.126 50 258.706 60.396 272.496 76.7327Z" fill="#FFC738"/>
<g style="mix-blend-mode:multiply" opacity="0.5">
<path d="M265.319 180.618C257.407 183.455 248.882 185 240 185C198.628 185 165 151.372 165 110C165 87.9545 174.548 68.108 189.728 54.3765C160.762 64.7655 140 92.4921 140 125C140 166.372 173.628 200 215 200C234.349 200 252.005 192.667 265.319 180.618Z" fill="#FFC738"/>
</g>
<path d="M55 350C55 286.487 106.487 235 170 235H260C323.513 235 375 286.487 375 350V375H55V350Z" stroke="#121331" stroke-width="7" stroke-linejoin="round"/>
<path d="M272.496 76.7327C283.423 89.7808 290 106.648 290 125C290 166.478 256.372 200 215 200C173.628 200 140 166.372 140 125C140 83.628 173.628 50 215 50C238.126 50 258.706 60.396 272.496 76.7327Z" stroke="#121331" stroke-width="7" stroke-miterlimit="27.88" stroke-linecap="round" stroke-linejoin="round"/>
</svg>
